<mxfile host="app.diagrams.net" modified="2023-05-08T04:07:15.453Z" agent="Mozilla/5.0 (X11; Linux x86_64) AppleWebKit/537.36 (KHTML, like Gecko) Chrome/112.0.0.0 Safari/537.36" version="21.2.9" etag="QsdoO7n389F5l6rJ8Ry5" type="github">
  <diagram name="Page-1" id="TsRUYsVIhxU2nP6YZsOH">
    <mxGraphModel>
      <root>
        <mxCell id="0" />
        <mxCell id="1" parent="0" />
      </root>
    </mxGraphModel>
  </diagram>
</mxfile>
